<svg width="92" height="67" viewBox="0 0 92 67" fill="none" xmlns="http://www.w3.org/2000/svg">
<path d="M1.56 40.65L42.74 65.9L90.49 53.71L64.68 36.71L64.93 6.59002L60.93 2.40002L53.12 4.53002L46.02 4.15002L41.68 0.400024L31.68 2.28002L32.74 8.17002L25.49 9.59002L25.56 15.15L25.62 18.53L25.38 34.46L1.56 40.65Z" fill="white" stroke="white" stroke-width="0.75" stroke-miterlimit="10"/>
<path d="M44.31 12.21L48.24 15.78L48.35 48.26L40.87 39.03L30.62 37.34V12.9L44.31 12.21Z" fill="white"/>
<path d="M48.26 48.28L60.18 45.44L60.6 13.78L48.26 15.69V48.28Z" fill="white"/>
<path d="M48.24 15.78L60.6 14.03L54.42 8.77998L64.37 6.64998L60.76 2.90998L52.86 5.03998L45.83 4.60998L41.47 0.919983L32.06 2.61998L36.06 8.24998L25.9 10.03L30.62 12.9L38.49 12.53L44.31 12.21L48.24 15.78Z" fill="white"/>
</svg>
