<svg width="209" height="108" viewBox="0 0 209 108" fill="none" xmlns="http://www.w3.org/2000/svg">
<path d="M9.80999 1.16003L0.439991 5.22003C0.439991 5.22003 0.319991 12.66 0.439991 12.91C0.559991 13.16 13.63 23.91 13.63 23.91L17.51 56.91L23.36 63.08L29.99 67.83L63.53 94.71L74.03 104.29L81.86 106.71L88.19 105.21L91.5 104.29L98 102.5L106 100L109.36 98.63L131.78 89.96L155.7 80.88L165.45 78.13L170 76.5L184 72.5L186.5 71.5L190.53 70.88L195.45 44.38V32.61L207.66 29.53V20.53L194.12 10.82L9.80999 1.16003Z" fill="white" stroke="white" stroke-width="0.75" stroke-miterlimit="10"/>
</svg>
